<svg width="34" height="34" viewBox="0 0 34 34" fill="none" xmlns="http://www.w3.org/2000/svg">
<path d="M29.75 26.9166V17.3782C29.75 16.6096 29.5936 15.849 29.2904 15.1427C28.9872 14.4364 28.5435 13.7992 27.9862 13.2698L18.9522 4.68908C18.4256 4.18884 17.727 3.90991 17.0007 3.90991C16.2744 3.90991 15.5758 4.18884 15.0492 4.68908L6.01375 13.2698C5.45651 13.7992 5.01278 14.4364 4.70957 15.1427C4.40636 15.849 4.25 16.6096 4.25 17.3782V26.9166C4.25 27.668 4.54851 28.3887 5.07986 28.92C5.61122 29.4514 6.33189 29.7499 7.08333 29.7499H26.9167C27.6681 29.7499 28.3888 29.4514 28.9201 28.92C29.4515 28.3887 29.75 27.668 29.75 26.9166Z" stroke="black" stroke-width="2" stroke-linecap="round" stroke-linejoin="round"/>
<path d="M12.75 21.2498C12.75 20.4984 13.0485 19.7777 13.5799 19.2464C14.1112 18.715 14.8319 18.4165 15.5833 18.4165H18.4167C19.1681 18.4165 19.8888 18.715 20.4201 19.2464C20.9515 19.7777 21.25 20.4984 21.25 21.2498V29.7498H12.75V21.2498Z" stroke="black" stroke-width="2" stroke-linecap="round" stroke-linejoin="round"/>
</svg>
