<svg width="32" height="32" viewBox="0 0 32 32" fill="none" xmlns="http://www.w3.org/2000/svg">
<path d="M15.9997 4C16.3395 4.00038 16.6664 4.13051 16.9135 4.3638C17.1606 4.59709 17.3093 4.91594 17.3292 5.25519C17.3492 5.59445 17.2388 5.92851 17.0207 6.18911C16.8025 6.44971 16.4931 6.6172 16.1557 6.65733L15.9997 6.66667H9.33301C9.00643 6.66671 8.69123 6.78661 8.44718 7.00362C8.20313 7.22063 8.04722 7.51967 8.00901 7.844L7.99967 8V24C7.99972 24.3266 8.11962 24.6418 8.33663 24.8858C8.55364 25.1299 8.85267 25.2858 9.17701 25.324L9.33301 25.3333H15.333C15.6728 25.3337 15.9997 25.4638 16.2468 25.6971C16.4939 25.9304 16.6427 26.2493 16.6626 26.5885C16.6825 26.9278 16.5721 27.2618 16.354 27.5224C16.1359 27.783 15.8265 27.9505 15.489 27.9907L15.333 28H9.33301C8.31273 28.0001 7.33099 27.6102 6.58866 26.9103C5.84633 26.2103 5.39953 25.2532 5.33967 24.2347L5.33301 24V8C5.33295 6.97972 5.72277 5.99798 6.42272 5.25565C7.12266 4.51332 8.07982 4.06652 9.09834 4.00667L9.33301 4H15.9997ZM23.609 11.2853L27.3797 15.0573C27.6296 15.3074 27.7701 15.6464 27.7701 16C27.7701 16.3536 27.6296 16.6926 27.3797 16.9427L23.609 20.7147C23.3588 20.9647 23.0196 21.1051 22.6659 21.1049C22.3122 21.1048 21.973 20.9642 21.723 20.714C21.473 20.4638 21.3326 20.1246 21.3327 19.7709C21.3329 19.4172 21.4735 19.078 21.7237 18.828L23.2183 17.3333H15.9997C15.6461 17.3333 15.3069 17.1929 15.0569 16.9428C14.8068 16.6928 14.6663 16.3536 14.6663 16C14.6663 15.6464 14.8068 15.3072 15.0569 15.0572C15.3069 14.8071 15.6461 14.6667 15.9997 14.6667H23.2183L21.7237 13.172C21.4735 12.922 21.3329 12.5828 21.3327 12.2291C21.3326 11.8754 21.473 11.5362 21.723 11.286C21.973 11.0358 22.3122 10.8952 22.6659 10.8951C23.0196 10.8949 23.3588 11.0353 23.609 11.2853Z" fill="black"/>
</svg>
