<svg width="34" height="34" viewBox="0 0 34 34" fill="none" xmlns="http://www.w3.org/2000/svg">
<path d="M11.6873 25.5H22.3123V27.625H11.6873V25.5ZM13.8123 29.75H20.1873V31.875H13.8123V29.75ZM16.9998 2.125C14.1819 2.125 11.4794 3.24442 9.4868 5.23699C7.49423 7.22956 6.37481 9.93207 6.37481 12.75C6.30296 14.2942 6.59876 15.8333 7.23788 17.2409C7.87699 18.6484 8.84116 19.8841 10.0511 20.8463C11.1136 21.8344 11.6873 22.3975 11.6873 23.375H13.8123C13.8123 21.42 12.6329 20.3256 11.4854 19.2738C10.4924 18.5133 9.70094 17.5209 9.18043 16.3836C8.65992 15.2462 8.42622 13.9986 8.49981 12.75C8.49981 10.4957 9.39535 8.33365 10.9894 6.73959C12.5835 5.14553 14.7455 4.25 16.9998 4.25C19.2542 4.25 21.4162 5.14553 23.0102 6.73959C24.6043 8.33365 25.4998 10.4957 25.4998 12.75C25.5722 13.9995 25.3368 15.2478 24.8145 16.3852C24.2921 17.5226 23.4986 18.5144 22.5036 19.2738C21.3667 20.3363 20.1873 21.3988 20.1873 23.375H22.3123C22.3123 22.3975 22.8754 21.8344 23.9486 20.8356C25.1576 19.8751 26.1214 18.6412 26.7605 17.2356C27.3996 15.8299 27.6958 14.2925 27.6248 12.75C27.6248 11.3547 27.35 9.97307 26.816 8.68399C26.2821 7.3949 25.4994 6.22361 24.5128 5.23699C23.5262 4.25037 22.3549 3.46774 21.0658 2.93378C19.7767 2.39982 18.3951 2.125 16.9998 2.125Z" fill="black"/>
</svg>
