<svg width="34" height="34" viewBox="0 0 34 34" fill="none" xmlns="http://www.w3.org/2000/svg">
<path d="M5.6665 25.4999C5.6665 23.997 6.26353 22.5557 7.32623 21.493C8.38894 20.4303 9.83028 19.8333 11.3332 19.8333H22.6665C24.1694 19.8333 25.6107 20.4303 26.6734 21.493C27.7361 22.5557 28.3332 23.997 28.3332 25.4999C28.3332 26.2514 28.0347 26.972 27.5033 27.5034C26.972 28.0347 26.2513 28.3333 25.4998 28.3333H8.49984C7.74839 28.3333 7.02772 28.0347 6.49637 27.5034C5.96501 26.972 5.6665 26.2514 5.6665 25.4999Z" stroke="black" stroke-width="2" stroke-linejoin="round"/>
<path d="M17 14.1666C19.3472 14.1666 21.25 12.2638 21.25 9.91663C21.25 7.56942 19.3472 5.66663 17 5.66663C14.6528 5.66663 12.75 7.56942 12.75 9.91663C12.75 12.2638 14.6528 14.1666 17 14.1666Z" stroke="black" stroke-width="2"/>
</svg>
