<svg width="34" height="34" viewBox="0 0 34 34" fill="none" xmlns="http://www.w3.org/2000/svg">
<path d="M4.25 8.5H7.08333H29.75" stroke="black" stroke-width="2" stroke-linecap="round" stroke-linejoin="round"/>
<path d="M26.9168 8.50004V28.3334C26.9168 29.0848 26.6183 29.8055 26.087 30.3368C25.5556 30.8682 24.8349 31.1667 24.0835 31.1667H9.91683C9.16538 31.1667 8.44471 30.8682 7.91336 30.3368C7.38201 29.8055 7.0835 29.0848 7.0835 28.3334V8.50004M11.3335 8.50004V5.66671C11.3335 4.91526 11.632 4.19459 12.1634 3.66324C12.6947 3.13188 13.4154 2.83337 14.1668 2.83337H19.8335C20.5849 2.83337 21.3056 3.13188 21.837 3.66324C22.3683 4.19459 22.6668 4.91526 22.6668 5.66671V8.50004" stroke="black" stroke-width="2" stroke-linecap="round" stroke-linejoin="round"/>
</svg>
