<svg width="20" height="24" viewBox="0 0 20 24" fill="none" xmlns="http://www.w3.org/2000/svg">
<path fill-rule="evenodd" clip-rule="evenodd" d="M3.33333 6.44858V22.2857C3.33333 22.7403 3.15774 23.1764 2.84518 23.4979C2.53262 23.8194 2.10869 24 1.66667 24C1.22464 24 0.800716 23.8194 0.488156 23.4979C0.175595 23.1764 0 22.7403 0 22.2857V1.71357C0.000153985 1.36137 0.105763 1.01777 0.302465 0.729492C0.499167 0.441212 0.777416 0.222243 1.09937 0.102364C1.42133 -0.0175151 1.77137 -0.0324866 2.10189 0.0594842C2.43241 0.151455 2.72738 0.345905 2.94667 0.616392L10 9.32181L17.0533 0.616392C17.2726 0.345905 17.5676 0.151455 17.8981 0.0594842C18.2286 -0.0324866 18.5787 -0.0175151 18.9006 0.102364C19.2226 0.222243 19.5008 0.441212 19.6975 0.729492C19.8942 1.01777 19.9998 1.36137 20 1.71357V22.2857C20 22.7403 19.8244 23.1764 19.5118 23.4979C19.1993 23.8194 18.7754 24 18.3333 24C17.8913 24 17.4674 23.8194 17.1548 23.4979C16.8423 23.1764 16.6667 22.7403 16.6667 22.2857V6.44858L11.28 13.0968C11.1236 13.2897 10.9279 13.4449 10.7067 13.5515C10.4855 13.658 10.2442 13.7132 10 13.7132C9.75577 13.7132 9.51452 13.658 9.29333 13.5515C9.07215 13.4449 8.87642 13.2897 8.72 13.0968L3.33333 6.44858Z" fill="black"/>
</svg>
